<?xml version="1.0" standalone="no"?>
<!DOCTYPE svg PUBLIC "-//W3C//DTD SVG 20010904//EN"
 "http://www.w3.org/TR/2001/REC-SVG-20010904/DTD/svg10.dtd">
<svg version="1.0" xmlns="http://www.w3.org/2000/svg"
 width="262.000000pt" height="235.000000pt" viewBox="0 0 262.000000 235.000000"
 preserveAspectRatio="xMidYMid meet">

<g transform="translate(0.000000,235.000000) scale(0.100000,-0.100000)"
fill="#000000" stroke="none">
<path d="M536 2343 l-189 -3 -46 -35 c-87 -64 -242 -238 -282 -316 -14 -28
-19 -59 -19 -117 0 -97 20 -157 69 -214 105 -119 267 -123 374 -9 24 26 50 64
58 84 15 44 24 47 33 11 11 -43 57 -104 102 -135 147 -101 345 -25 389 149
l11 44 13 -44 c21 -70 74 -133 138 -165 146 -71 323 -1 373 148 l18 53 11 -41
c24 -89 104 -163 197 -183 132 -28 280 67 301 193 l6 39 15 -43 c38 -115 138
-192 250 -193 68 0 121 23 174 76 65 65 81 109 82 224 1 101 1 102 -36 155
-61 89 -190 231 -252 278 l-58 43 -771 2 c-425 2 -857 1 -961 -1z"/>
<path d="M1030 1623 c0 -5 -20 -30 -45 -56 -119 -120 -314 -116 -431 9 l-41
43 -50 -48 c-56 -54 -139 -91 -203 -91 -37 0 -39 -2 -47 -37 -4 -21 -8 -263
-8 -538 1 -537 7 -619 56 -748 33 -86 42 -92 166 -110 239 -36 374 -42 883
-42 512 0 655 7 880 42 121 19 136 30 168 115 46 124 56 249 57 723 0 242 -4
475 -8 518 l-9 77 -46 0 c-64 0 -156 45 -208 101 l-40 44 -32 -41 c-20 -27
-52 -53 -89 -71 -50 -24 -70 -28 -143 -28 -101 0 -151 21 -218 93 l-42 45 -36
-42 c-54 -63 -122 -93 -220 -99 -73 -4 -88 -1 -143 23 -41 19 -77 45 -107 78
-24 27 -44 45 -44 40z m-62 -303 c26 -12 59 -33 74 -47 l26 -25 236 0 236 1
39 30 c62 49 107 64 196 65 104 1 157 -24 225 -104 70 -85 103 -164 175 -418
102 -362 112 -423 80 -498 -47 -113 -353 -83 -454 45 -42 53 -81 139 -81 180
l0 34 -42 -6 c-24 -4 -118 -12 -210 -18 -158 -11 -375 -4 -525 18 -41 5 -43 4
-43 -20 0 -92 -97 -226 -192 -267 -115 -49 -265 -47 -325 4 -23 20 -27 33 -31
91 -5 81 1 111 85 415 41 148 79 266 105 319 41 86 110 171 160 197 74 38 185
40 266 4z"/>
<path d="M1170 953 l-135 -138 73 -3 72 -3 0 -64 c0 -36 4 -65 10 -66 6 0 61
-1 123 -1 l112 -1 3 66 3 66 77 3 77 3 -134 138 c-74 75 -137 137 -141 137 -3
0 -66 -62 -140 -137z"/>
</g>
</svg>
