<?xml version="1.0" standalone="no"?>
<!DOCTYPE svg PUBLIC "-//W3C//DTD SVG 20010904//EN"
 "http://www.w3.org/TR/2001/REC-SVG-20010904/DTD/svg10.dtd">
<svg version="1.0" xmlns="http://www.w3.org/2000/svg"
 width="256.000000pt" height="256.000000pt" viewBox="0 0 256.000000 256.000000"
 preserveAspectRatio="xMidYMid meet">

<g transform="translate(0.000000,256.000000) scale(0.100000,-0.100000)"
fill="#000000" stroke="none">
<path d="M1179 2532 c-69 -36 -106 -88 -119 -167 -5 -33 -10 -241 -10 -462 l0
-402 -454 -3 -454 -3 -43 -30 c-56 -40 -99 -120 -99 -185 0 -64 43 -146 95
-182 22 -15 64 -32 94 -38 30 -6 229 -10 457 -10 l404 0 0 -397 c0 -219 5
-425 10 -458 13 -79 50 -131 119 -167 71 -37 129 -37 202 0 69 35 106 87 119
167 5 33 10 239 10 458 l0 397 404 0 c228 0 427 4 457 10 30 6 72 23 94 38 52
36 95 118 95 182 0 65 -43 145 -99 185 l-43 30 -454 3 -454 3 0 402 c0 221 -5
429 -10 462 -13 80 -50 132 -119 168 -73 36 -131 36 -202 -1z"/>
</g>
</svg>
